<mxfile host="Electron" modified="2024-04-10T13:06:03.727Z" agent="Mozilla/5.0 (X11; Linux x86_64) AppleWebKit/537.36 (KHTML, like Gecko) draw.io/24.1.0 Chrome/120.0.6099.109 Electron/28.1.0 Safari/537.36" etag="lEbvjntFI84pLG-DcCzq" version="24.1.0" type="device">
  <diagram id="C5RBs43oDa-KdzZeNtuy" name="Page-1">
    <mxGraphModel dx="2430" dy="1090" grid="1" gridSize="10" guides="1" tooltips="1" connect="1" arrows="1" fold="1" page="1" pageScale="1" pageWidth="827" pageHeight="1169" math="0" shadow="0">
      <root>
        <mxCell id="WIyWlLk6GJQsqaUBKTNV-0" />
        <mxCell id="WIyWlLk6GJQsqaUBKTNV-1" parent="WIyWlLk6GJQsqaUBKTNV-0" />
        <mxCell id="EH2dxOq8Gff6JwyL9JmR-162" value="" style="rounded=1;whiteSpace=wrap;html=1;dashed=1;dashPattern=1 4;strokeWidth=2;glass=1;" vertex="1" parent="WIyWlLk6GJQsqaUBKTNV-1">
          <mxGeometry x="930" y="80" width="310" height="840" as="geometry" />
        </mxCell>
        <mxCell id="EH2dxOq8Gff6JwyL9JmR-127" value="" style="rounded=0;whiteSpace=wrap;html=1;dashed=1;dashPattern=12 12;movable=0;resizable=0;rotatable=0;deletable=0;editable=0;locked=1;connectable=0;" vertex="1" parent="WIyWlLk6GJQsqaUBKTNV-1">
          <mxGeometry x="-240" y="80" width="1160" height="840" as="geometry" />
        </mxCell>
        <mxCell id="EH2dxOq8Gff6JwyL9JmR-80" style="edgeStyle=orthogonalEdgeStyle;rounded=0;orthogonalLoop=1;jettySize=auto;html=1;entryX=0.648;entryY=0.003;entryDx=0;entryDy=0;exitX=0.125;exitY=1.003;exitDx=0;exitDy=0;exitPerimeter=0;entryPerimeter=0;" edge="1" parent="WIyWlLk6GJQsqaUBKTNV-1" source="EH2dxOq8Gff6JwyL9JmR-71" target="EH2dxOq8Gff6JwyL9JmR-29">
          <mxGeometry relative="1" as="geometry">
            <mxPoint x="510" y="290" as="sourcePoint" />
            <Array as="points">
              <mxPoint x="511" y="310" />
              <mxPoint x="402" y="310" />
            </Array>
          </mxGeometry>
        </mxCell>
        <mxCell id="EH2dxOq8Gff6JwyL9JmR-5" value="" style="group" vertex="1" connectable="0" parent="WIyWlLk6GJQsqaUBKTNV-1">
          <mxGeometry x="-210" y="460" width="250" height="170" as="geometry" />
        </mxCell>
        <mxCell id="EH2dxOq8Gff6JwyL9JmR-6" value="" style="rounded=1;whiteSpace=wrap;html=1;fillColor=#d5e8d4;strokeColor=#82b366;" vertex="1" parent="EH2dxOq8Gff6JwyL9JmR-5">
          <mxGeometry width="250" height="170" as="geometry" />
        </mxCell>
        <mxCell id="EH2dxOq8Gff6JwyL9JmR-8" value="" style="rounded=1;whiteSpace=wrap;html=1;" vertex="1" parent="EH2dxOq8Gff6JwyL9JmR-5">
          <mxGeometry y="40" width="250" height="130" as="geometry" />
        </mxCell>
        <mxCell id="EH2dxOq8Gff6JwyL9JmR-10" value="&lt;span style=&quot;font-size: 14px;&quot;&gt;&lt;b&gt;Kafka Streams&lt;/b&gt;&lt;/span&gt;" style="text;html=1;align=center;verticalAlign=middle;whiteSpace=wrap;rounded=0;" vertex="1" parent="EH2dxOq8Gff6JwyL9JmR-5">
          <mxGeometry x="6.8700000000000045" y="60" width="117.5" height="30" as="geometry" />
        </mxCell>
        <mxCell id="EH2dxOq8Gff6JwyL9JmR-11" value="" style="endArrow=none;html=1;rounded=0;entryX=0.5;entryY=0;entryDx=0;entryDy=0;exitX=0.5;exitY=1;exitDx=0;exitDy=0;dashed=1;dashPattern=1 2;" edge="1" parent="EH2dxOq8Gff6JwyL9JmR-5" source="EH2dxOq8Gff6JwyL9JmR-8" target="EH2dxOq8Gff6JwyL9JmR-8">
          <mxGeometry width="50" height="50" relative="1" as="geometry">
            <mxPoint x="160" y="120" as="sourcePoint" />
            <mxPoint x="210" y="70" as="targetPoint" />
          </mxGeometry>
        </mxCell>
        <mxCell id="EH2dxOq8Gff6JwyL9JmR-12" value="Running in Docker Container with Kafka Zookeeper and JMX" style="text;html=1;align=center;verticalAlign=middle;whiteSpace=wrap;rounded=0;" vertex="1" parent="EH2dxOq8Gff6JwyL9JmR-5">
          <mxGeometry x="140" y="52.5" width="100" height="105" as="geometry" />
        </mxCell>
        <mxCell id="EH2dxOq8Gff6JwyL9JmR-26" value="" style="strokeWidth=2;html=1;shape=mxgraph.flowchart.multi-document;whiteSpace=wrap;" vertex="1" parent="EH2dxOq8Gff6JwyL9JmR-5">
          <mxGeometry x="35.62" y="100" width="60" height="42" as="geometry" />
        </mxCell>
        <mxCell id="EH2dxOq8Gff6JwyL9JmR-7" value="&lt;b style=&quot;&quot;&gt;&lt;u&gt;container: zookeeper&lt;/u&gt;&lt;/b&gt;" style="text;html=1;align=center;verticalAlign=middle;whiteSpace=wrap;rounded=0;" vertex="1" parent="EH2dxOq8Gff6JwyL9JmR-5">
          <mxGeometry x="50" y="6" width="150" height="30" as="geometry" />
        </mxCell>
        <mxCell id="EH2dxOq8Gff6JwyL9JmR-23" value="" style="group;" vertex="1" connectable="0" parent="WIyWlLk6GJQsqaUBKTNV-1">
          <mxGeometry x="970" y="330" width="250" height="170" as="geometry" />
        </mxCell>
        <mxCell id="EH2dxOq8Gff6JwyL9JmR-14" value="" style="rounded=1;whiteSpace=wrap;html=1;fillColor=#dae8fc;strokeColor=#6c8ebf;" vertex="1" parent="EH2dxOq8Gff6JwyL9JmR-23">
          <mxGeometry width="250" height="170" as="geometry" />
        </mxCell>
        <mxCell id="EH2dxOq8Gff6JwyL9JmR-15" value="&lt;b style=&quot;&quot;&gt;&lt;u&gt;container: cassandra&lt;/u&gt;&lt;/b&gt;" style="text;html=1;align=center;verticalAlign=middle;whiteSpace=wrap;rounded=0;" vertex="1" parent="EH2dxOq8Gff6JwyL9JmR-23">
          <mxGeometry x="52.5" y="6" width="145" height="30" as="geometry" />
        </mxCell>
        <mxCell id="EH2dxOq8Gff6JwyL9JmR-16" value="" style="rounded=1;whiteSpace=wrap;html=1;" vertex="1" parent="EH2dxOq8Gff6JwyL9JmR-23">
          <mxGeometry y="40" width="250" height="130" as="geometry" />
        </mxCell>
        <mxCell id="EH2dxOq8Gff6JwyL9JmR-18" value="&lt;span style=&quot;font-size: 14px;&quot;&gt;&lt;b&gt;Database&lt;/b&gt;&lt;/span&gt;" style="text;html=1;align=center;verticalAlign=middle;whiteSpace=wrap;rounded=0;" vertex="1" parent="EH2dxOq8Gff6JwyL9JmR-23">
          <mxGeometry x="6.8700000000000045" y="60" width="117.5" height="30" as="geometry" />
        </mxCell>
        <mxCell id="EH2dxOq8Gff6JwyL9JmR-19" value="" style="endArrow=none;html=1;rounded=0;entryX=0.5;entryY=0;entryDx=0;entryDy=0;exitX=0.5;exitY=1;exitDx=0;exitDy=0;dashed=1;dashPattern=1 2;" edge="1" parent="EH2dxOq8Gff6JwyL9JmR-23" source="EH2dxOq8Gff6JwyL9JmR-16" target="EH2dxOq8Gff6JwyL9JmR-16">
          <mxGeometry width="50" height="50" relative="1" as="geometry">
            <mxPoint x="160" y="120" as="sourcePoint" />
            <mxPoint x="210" y="70" as="targetPoint" />
          </mxGeometry>
        </mxCell>
        <mxCell id="EH2dxOq8Gff6JwyL9JmR-20" value="Running in Docker Container with Apache Cassandra" style="text;html=1;align=center;verticalAlign=middle;whiteSpace=wrap;rounded=0;" vertex="1" parent="EH2dxOq8Gff6JwyL9JmR-23">
          <mxGeometry x="140" y="52.5" width="100" height="105" as="geometry" />
        </mxCell>
        <mxCell id="EH2dxOq8Gff6JwyL9JmR-22" value="" style="shape=cylinder3;whiteSpace=wrap;html=1;boundedLbl=1;backgroundOutline=1;size=15;fillColor=#f8cecc;strokeColor=#b85450;" vertex="1" parent="EH2dxOq8Gff6JwyL9JmR-23">
          <mxGeometry x="43.42999999999995" y="90" width="44.38" height="60" as="geometry" />
        </mxCell>
        <mxCell id="EH2dxOq8Gff6JwyL9JmR-24" value="" style="group" vertex="1" connectable="0" parent="WIyWlLk6GJQsqaUBKTNV-1">
          <mxGeometry x="40" y="110" width="250" height="170" as="geometry" />
        </mxCell>
        <mxCell id="EH2dxOq8Gff6JwyL9JmR-0" value="" style="rounded=1;whiteSpace=wrap;html=1;container=0;fillColor=#e1d5e7;strokeColor=#9673a6;" vertex="1" parent="EH2dxOq8Gff6JwyL9JmR-24">
          <mxGeometry width="250" height="170" as="geometry" />
        </mxCell>
        <mxCell id="EH2dxOq8Gff6JwyL9JmR-3" value="&lt;b style=&quot;&quot;&gt;&lt;u&gt;container: producer&lt;/u&gt;&lt;/b&gt;" style="text;html=1;align=center;verticalAlign=middle;whiteSpace=wrap;rounded=0;container=0;" vertex="1" parent="EH2dxOq8Gff6JwyL9JmR-24">
          <mxGeometry x="62.5" y="6" width="125" height="30" as="geometry" />
        </mxCell>
        <mxCell id="U_DGJQu449XX2-uUiDo--7" value="" style="rounded=1;whiteSpace=wrap;html=1;container=0;" parent="EH2dxOq8Gff6JwyL9JmR-24" vertex="1">
          <mxGeometry y="40" width="250" height="130" as="geometry" />
        </mxCell>
        <mxCell id="U_DGJQu449XX2-uUiDo--8" value="" style="outlineConnect=0;dashed=0;verticalLabelPosition=bottom;verticalAlign=top;align=center;html=1;shape=mxgraph.aws3.sensor;fillColor=#5294CF;gradientColor=none;container=0;" parent="EH2dxOq8Gff6JwyL9JmR-24" vertex="1">
          <mxGeometry x="40.61" y="100" width="50.01" height="52.5" as="geometry" />
        </mxCell>
        <mxCell id="U_DGJQu449XX2-uUiDo--9" value="&lt;span style=&quot;font-size: 14px;&quot;&gt;&lt;b&gt;IoT Sensor Station&lt;/b&gt;&lt;/span&gt;" style="text;html=1;align=center;verticalAlign=middle;whiteSpace=wrap;rounded=0;container=0;" parent="EH2dxOq8Gff6JwyL9JmR-24" vertex="1">
          <mxGeometry x="6.8700000000000045" y="60" width="117.5" height="30" as="geometry" />
        </mxCell>
        <mxCell id="U_DGJQu449XX2-uUiDo--10" value="" style="endArrow=none;html=1;rounded=0;entryX=0.5;entryY=0;entryDx=0;entryDy=0;exitX=0.5;exitY=1;exitDx=0;exitDy=0;dashed=1;dashPattern=1 2;" parent="EH2dxOq8Gff6JwyL9JmR-24" source="U_DGJQu449XX2-uUiDo--7" target="U_DGJQu449XX2-uUiDo--7" edge="1">
          <mxGeometry width="50" height="50" relative="1" as="geometry">
            <mxPoint x="160" y="120" as="sourcePoint" />
            <mxPoint x="210" y="70" as="targetPoint" />
          </mxGeometry>
        </mxCell>
        <mxCell id="U_DGJQu449XX2-uUiDo--11" value="Running in Docker Container with Apache Spark Producer" style="text;html=1;align=center;verticalAlign=middle;whiteSpace=wrap;rounded=0;container=0;" parent="EH2dxOq8Gff6JwyL9JmR-24" vertex="1">
          <mxGeometry x="140" y="52.5" width="100" height="105" as="geometry" />
        </mxCell>
        <mxCell id="EH2dxOq8Gff6JwyL9JmR-28" value="" style="group" vertex="1" connectable="0" parent="WIyWlLk6GJQsqaUBKTNV-1">
          <mxGeometry x="240" y="330" width="250" height="170" as="geometry" />
        </mxCell>
        <mxCell id="EH2dxOq8Gff6JwyL9JmR-29" value="" style="rounded=1;whiteSpace=wrap;html=1;fillColor=#f8cecc;strokeColor=#b85450;" vertex="1" parent="EH2dxOq8Gff6JwyL9JmR-28">
          <mxGeometry width="250" height="170" as="geometry" />
        </mxCell>
        <mxCell id="EH2dxOq8Gff6JwyL9JmR-30" value="&lt;b style=&quot;&quot;&gt;&lt;u&gt;container: broker (leader)&lt;/u&gt;&lt;/b&gt;" style="text;html=1;align=center;verticalAlign=middle;whiteSpace=wrap;rounded=0;" vertex="1" parent="EH2dxOq8Gff6JwyL9JmR-28">
          <mxGeometry x="50" y="6" width="150" height="30" as="geometry" />
        </mxCell>
        <mxCell id="EH2dxOq8Gff6JwyL9JmR-31" value="" style="rounded=1;whiteSpace=wrap;html=1;" vertex="1" parent="EH2dxOq8Gff6JwyL9JmR-28">
          <mxGeometry y="40" width="250" height="130" as="geometry" />
        </mxCell>
        <mxCell id="EH2dxOq8Gff6JwyL9JmR-32" value="&lt;span style=&quot;font-size: 14px;&quot;&gt;&lt;b&gt;Kafka Streams&lt;/b&gt;&lt;/span&gt;" style="text;html=1;align=center;verticalAlign=middle;whiteSpace=wrap;rounded=0;" vertex="1" parent="EH2dxOq8Gff6JwyL9JmR-28">
          <mxGeometry x="6.8700000000000045" y="60" width="117.5" height="30" as="geometry" />
        </mxCell>
        <mxCell id="EH2dxOq8Gff6JwyL9JmR-33" value="" style="endArrow=none;html=1;rounded=0;entryX=0.5;entryY=0;entryDx=0;entryDy=0;exitX=0.5;exitY=1;exitDx=0;exitDy=0;dashed=1;dashPattern=1 2;" edge="1" parent="EH2dxOq8Gff6JwyL9JmR-28" source="EH2dxOq8Gff6JwyL9JmR-31" target="EH2dxOq8Gff6JwyL9JmR-31">
          <mxGeometry width="50" height="50" relative="1" as="geometry">
            <mxPoint x="160" y="120" as="sourcePoint" />
            <mxPoint x="210" y="70" as="targetPoint" />
          </mxGeometry>
        </mxCell>
        <mxCell id="EH2dxOq8Gff6JwyL9JmR-34" value="Running in Docker Container with Kafka Broker and JMX" style="text;html=1;align=center;verticalAlign=middle;whiteSpace=wrap;rounded=0;" vertex="1" parent="EH2dxOq8Gff6JwyL9JmR-28">
          <mxGeometry x="140" y="52.5" width="100" height="105" as="geometry" />
        </mxCell>
        <mxCell id="EH2dxOq8Gff6JwyL9JmR-35" value="" style="strokeWidth=2;html=1;shape=mxgraph.flowchart.multi-document;whiteSpace=wrap;" vertex="1" parent="EH2dxOq8Gff6JwyL9JmR-28">
          <mxGeometry x="35.62" y="100" width="60" height="42" as="geometry" />
        </mxCell>
        <mxCell id="EH2dxOq8Gff6JwyL9JmR-36" value="" style="group" vertex="1" connectable="0" parent="WIyWlLk6GJQsqaUBKTNV-1">
          <mxGeometry x="80" y="550" width="250" height="170" as="geometry" />
        </mxCell>
        <mxCell id="EH2dxOq8Gff6JwyL9JmR-37" value="" style="rounded=1;whiteSpace=wrap;html=1;fillColor=#f8cecc;strokeColor=#b85450;" vertex="1" parent="EH2dxOq8Gff6JwyL9JmR-36">
          <mxGeometry width="250" height="170" as="geometry" />
        </mxCell>
        <mxCell id="EH2dxOq8Gff6JwyL9JmR-38" value="&lt;b style=&quot;&quot;&gt;&lt;u&gt;container: broker (follower)&lt;/u&gt;&lt;/b&gt;" style="text;html=1;align=center;verticalAlign=middle;whiteSpace=wrap;rounded=0;" vertex="1" parent="EH2dxOq8Gff6JwyL9JmR-36">
          <mxGeometry x="50" y="6" width="150" height="30" as="geometry" />
        </mxCell>
        <mxCell id="EH2dxOq8Gff6JwyL9JmR-39" value="" style="rounded=1;whiteSpace=wrap;html=1;" vertex="1" parent="EH2dxOq8Gff6JwyL9JmR-36">
          <mxGeometry y="40" width="250" height="130" as="geometry" />
        </mxCell>
        <mxCell id="EH2dxOq8Gff6JwyL9JmR-40" value="&lt;span style=&quot;font-size: 14px;&quot;&gt;&lt;b&gt;Kafka Streams&lt;/b&gt;&lt;/span&gt;" style="text;html=1;align=center;verticalAlign=middle;whiteSpace=wrap;rounded=0;" vertex="1" parent="EH2dxOq8Gff6JwyL9JmR-36">
          <mxGeometry x="6.8700000000000045" y="60" width="117.5" height="30" as="geometry" />
        </mxCell>
        <mxCell id="EH2dxOq8Gff6JwyL9JmR-41" value="" style="endArrow=none;html=1;rounded=0;entryX=0.5;entryY=0;entryDx=0;entryDy=0;exitX=0.5;exitY=1;exitDx=0;exitDy=0;dashed=1;dashPattern=1 2;" edge="1" parent="EH2dxOq8Gff6JwyL9JmR-36" source="EH2dxOq8Gff6JwyL9JmR-39" target="EH2dxOq8Gff6JwyL9JmR-39">
          <mxGeometry width="50" height="50" relative="1" as="geometry">
            <mxPoint x="160" y="120" as="sourcePoint" />
            <mxPoint x="210" y="70" as="targetPoint" />
          </mxGeometry>
        </mxCell>
        <mxCell id="EH2dxOq8Gff6JwyL9JmR-42" value="Running in Docker Container with Kafka Broker and JMX" style="text;html=1;align=center;verticalAlign=middle;whiteSpace=wrap;rounded=0;" vertex="1" parent="EH2dxOq8Gff6JwyL9JmR-36">
          <mxGeometry x="140" y="52.5" width="100" height="105" as="geometry" />
        </mxCell>
        <mxCell id="EH2dxOq8Gff6JwyL9JmR-43" value="" style="strokeWidth=2;html=1;shape=mxgraph.flowchart.multi-document;whiteSpace=wrap;" vertex="1" parent="EH2dxOq8Gff6JwyL9JmR-36">
          <mxGeometry x="35.62" y="100" width="60" height="42" as="geometry" />
        </mxCell>
        <mxCell id="EH2dxOq8Gff6JwyL9JmR-44" value="" style="group" vertex="1" connectable="0" parent="WIyWlLk6GJQsqaUBKTNV-1">
          <mxGeometry x="420" y="550" width="250" height="170" as="geometry" />
        </mxCell>
        <mxCell id="EH2dxOq8Gff6JwyL9JmR-45" value="" style="rounded=1;whiteSpace=wrap;html=1;fillColor=#f8cecc;strokeColor=#b85450;" vertex="1" parent="EH2dxOq8Gff6JwyL9JmR-44">
          <mxGeometry width="250" height="170" as="geometry" />
        </mxCell>
        <mxCell id="EH2dxOq8Gff6JwyL9JmR-46" value="&lt;b style=&quot;&quot;&gt;&lt;u&gt;container: broker (follower)&lt;/u&gt;&lt;/b&gt;" style="text;html=1;align=center;verticalAlign=middle;whiteSpace=wrap;rounded=0;" vertex="1" parent="EH2dxOq8Gff6JwyL9JmR-44">
          <mxGeometry x="50" y="6" width="150" height="30" as="geometry" />
        </mxCell>
        <mxCell id="EH2dxOq8Gff6JwyL9JmR-47" value="" style="rounded=1;whiteSpace=wrap;html=1;" vertex="1" parent="EH2dxOq8Gff6JwyL9JmR-44">
          <mxGeometry y="40" width="250" height="130" as="geometry" />
        </mxCell>
        <mxCell id="EH2dxOq8Gff6JwyL9JmR-48" value="&lt;span style=&quot;font-size: 14px;&quot;&gt;&lt;b&gt;Kafka Streams&lt;/b&gt;&lt;/span&gt;" style="text;html=1;align=center;verticalAlign=middle;whiteSpace=wrap;rounded=0;" vertex="1" parent="EH2dxOq8Gff6JwyL9JmR-44">
          <mxGeometry x="6.8700000000000045" y="60" width="117.5" height="30" as="geometry" />
        </mxCell>
        <mxCell id="EH2dxOq8Gff6JwyL9JmR-49" value="" style="endArrow=none;html=1;rounded=0;entryX=0.5;entryY=0;entryDx=0;entryDy=0;exitX=0.5;exitY=1;exitDx=0;exitDy=0;dashed=1;dashPattern=1 2;" edge="1" parent="EH2dxOq8Gff6JwyL9JmR-44" source="EH2dxOq8Gff6JwyL9JmR-47" target="EH2dxOq8Gff6JwyL9JmR-47">
          <mxGeometry width="50" height="50" relative="1" as="geometry">
            <mxPoint x="160" y="120" as="sourcePoint" />
            <mxPoint x="210" y="70" as="targetPoint" />
          </mxGeometry>
        </mxCell>
        <mxCell id="EH2dxOq8Gff6JwyL9JmR-50" value="Running in Docker Container with Kafka Broker and JMX" style="text;html=1;align=center;verticalAlign=middle;whiteSpace=wrap;rounded=0;" vertex="1" parent="EH2dxOq8Gff6JwyL9JmR-44">
          <mxGeometry x="140" y="52.5" width="100" height="105" as="geometry" />
        </mxCell>
        <mxCell id="EH2dxOq8Gff6JwyL9JmR-51" value="" style="strokeWidth=2;html=1;shape=mxgraph.flowchart.multi-document;whiteSpace=wrap;" vertex="1" parent="EH2dxOq8Gff6JwyL9JmR-44">
          <mxGeometry x="35.62" y="100" width="60" height="42" as="geometry" />
        </mxCell>
        <mxCell id="EH2dxOq8Gff6JwyL9JmR-68" value="" style="group;" vertex="1" connectable="0" parent="WIyWlLk6GJQsqaUBKTNV-1">
          <mxGeometry x="480" y="110" width="250" height="170" as="geometry" />
        </mxCell>
        <mxCell id="EH2dxOq8Gff6JwyL9JmR-69" value="" style="rounded=1;whiteSpace=wrap;html=1;container=0;fillColor=#e1d5e7;strokeColor=#9673a6;" vertex="1" parent="EH2dxOq8Gff6JwyL9JmR-68">
          <mxGeometry width="250" height="170" as="geometry" />
        </mxCell>
        <mxCell id="EH2dxOq8Gff6JwyL9JmR-70" value="&lt;b style=&quot;&quot;&gt;&lt;u&gt;container: producer&lt;/u&gt;&lt;/b&gt;" style="text;html=1;align=center;verticalAlign=middle;whiteSpace=wrap;rounded=0;container=0;" vertex="1" parent="EH2dxOq8Gff6JwyL9JmR-68">
          <mxGeometry x="62.5" y="6" width="125" height="30" as="geometry" />
        </mxCell>
        <mxCell id="EH2dxOq8Gff6JwyL9JmR-71" value="" style="rounded=1;whiteSpace=wrap;html=1;container=0;" vertex="1" parent="EH2dxOq8Gff6JwyL9JmR-68">
          <mxGeometry y="40" width="250" height="130" as="geometry" />
        </mxCell>
        <mxCell id="EH2dxOq8Gff6JwyL9JmR-72" value="" style="outlineConnect=0;dashed=0;verticalLabelPosition=bottom;verticalAlign=top;align=center;html=1;shape=mxgraph.aws3.sensor;fillColor=#5294CF;gradientColor=none;container=0;" vertex="1" parent="EH2dxOq8Gff6JwyL9JmR-68">
          <mxGeometry x="40.61" y="100" width="50.01" height="52.5" as="geometry" />
        </mxCell>
        <mxCell id="EH2dxOq8Gff6JwyL9JmR-73" value="&lt;span style=&quot;font-size: 14px;&quot;&gt;&lt;b&gt;IoT Sensor Station&lt;/b&gt;&lt;/span&gt;" style="text;html=1;align=center;verticalAlign=middle;whiteSpace=wrap;rounded=0;container=0;" vertex="1" parent="EH2dxOq8Gff6JwyL9JmR-68">
          <mxGeometry x="6.8700000000000045" y="60" width="117.5" height="30" as="geometry" />
        </mxCell>
        <mxCell id="EH2dxOq8Gff6JwyL9JmR-74" value="" style="endArrow=none;html=1;rounded=0;entryX=0.5;entryY=0;entryDx=0;entryDy=0;exitX=0.5;exitY=1;exitDx=0;exitDy=0;dashed=1;dashPattern=1 2;" edge="1" parent="EH2dxOq8Gff6JwyL9JmR-68" source="EH2dxOq8Gff6JwyL9JmR-71" target="EH2dxOq8Gff6JwyL9JmR-71">
          <mxGeometry width="50" height="50" relative="1" as="geometry">
            <mxPoint x="160" y="120" as="sourcePoint" />
            <mxPoint x="210" y="70" as="targetPoint" />
          </mxGeometry>
        </mxCell>
        <mxCell id="EH2dxOq8Gff6JwyL9JmR-75" value="Running in Docker Container with Apache Spark Producer" style="text;html=1;align=center;verticalAlign=middle;whiteSpace=wrap;rounded=0;container=0;" vertex="1" parent="EH2dxOq8Gff6JwyL9JmR-68">
          <mxGeometry x="140" y="52.5" width="100" height="105" as="geometry" />
        </mxCell>
        <mxCell id="EH2dxOq8Gff6JwyL9JmR-76" value="" style="endArrow=none;dashed=1;html=1;dashPattern=1 3;strokeWidth=2;rounded=0;" edge="1" parent="WIyWlLk6GJQsqaUBKTNV-1" source="EH2dxOq8Gff6JwyL9JmR-77">
          <mxGeometry width="50" height="50" relative="1" as="geometry">
            <mxPoint x="280" y="200" as="sourcePoint" />
            <mxPoint x="470" y="210" as="targetPoint" />
          </mxGeometry>
        </mxCell>
        <mxCell id="EH2dxOq8Gff6JwyL9JmR-78" value="" style="endArrow=none;dashed=1;html=1;dashPattern=1 3;strokeWidth=2;rounded=0;" edge="1" parent="WIyWlLk6GJQsqaUBKTNV-1" target="EH2dxOq8Gff6JwyL9JmR-77">
          <mxGeometry width="50" height="50" relative="1" as="geometry">
            <mxPoint x="300" y="210" as="sourcePoint" />
            <mxPoint x="520" y="200" as="targetPoint" />
          </mxGeometry>
        </mxCell>
        <mxCell id="EH2dxOq8Gff6JwyL9JmR-77" value="&lt;b&gt;&lt;font style=&quot;font-size: 16px;&quot;&gt;n producers&lt;/font&gt;&lt;/b&gt;" style="text;html=1;align=center;verticalAlign=middle;whiteSpace=wrap;rounded=0;" vertex="1" parent="WIyWlLk6GJQsqaUBKTNV-1">
          <mxGeometry x="330" y="190" width="96" height="30" as="geometry" />
        </mxCell>
        <mxCell id="EH2dxOq8Gff6JwyL9JmR-79" style="edgeStyle=orthogonalEdgeStyle;rounded=0;orthogonalLoop=1;jettySize=auto;html=1;entryX=0.25;entryY=0;entryDx=0;entryDy=0;" edge="1" parent="WIyWlLk6GJQsqaUBKTNV-1" source="U_DGJQu449XX2-uUiDo--7" target="EH2dxOq8Gff6JwyL9JmR-29">
          <mxGeometry relative="1" as="geometry">
            <Array as="points">
              <mxPoint x="165" y="310" />
              <mxPoint x="302" y="310" />
            </Array>
          </mxGeometry>
        </mxCell>
        <mxCell id="EH2dxOq8Gff6JwyL9JmR-90" value="Publish to Topic" style="edgeLabel;html=1;align=center;verticalAlign=middle;resizable=0;points=[];rotation=0;" vertex="1" connectable="0" parent="EH2dxOq8Gff6JwyL9JmR-79">
          <mxGeometry x="-0.4" y="-1" relative="1" as="geometry">
            <mxPoint x="39" y="-1" as="offset" />
          </mxGeometry>
        </mxCell>
        <mxCell id="EH2dxOq8Gff6JwyL9JmR-81" style="edgeStyle=orthogonalEdgeStyle;rounded=0;orthogonalLoop=1;jettySize=auto;html=1;entryX=0.5;entryY=0;entryDx=0;entryDy=0;exitX=0.5;exitY=1;exitDx=0;exitDy=0;" edge="1" parent="WIyWlLk6GJQsqaUBKTNV-1" source="EH2dxOq8Gff6JwyL9JmR-31" target="EH2dxOq8Gff6JwyL9JmR-37">
          <mxGeometry relative="1" as="geometry">
            <Array as="points">
              <mxPoint x="365" y="530" />
              <mxPoint x="205" y="530" />
            </Array>
          </mxGeometry>
        </mxCell>
        <mxCell id="EH2dxOq8Gff6JwyL9JmR-97" value="Replicate" style="edgeLabel;html=1;align=center;verticalAlign=middle;resizable=0;points=[];" vertex="1" connectable="0" parent="EH2dxOq8Gff6JwyL9JmR-81">
          <mxGeometry x="0.2473" y="-2" relative="1" as="geometry">
            <mxPoint x="16" y="2" as="offset" />
          </mxGeometry>
        </mxCell>
        <mxCell id="EH2dxOq8Gff6JwyL9JmR-83" style="edgeStyle=orthogonalEdgeStyle;rounded=0;orthogonalLoop=1;jettySize=auto;html=1;exitX=0.5;exitY=1;exitDx=0;exitDy=0;" edge="1" parent="WIyWlLk6GJQsqaUBKTNV-1" source="EH2dxOq8Gff6JwyL9JmR-31">
          <mxGeometry relative="1" as="geometry">
            <mxPoint x="545" y="550" as="targetPoint" />
            <Array as="points">
              <mxPoint x="365" y="530" />
              <mxPoint x="545" y="530" />
            </Array>
          </mxGeometry>
        </mxCell>
        <mxCell id="EH2dxOq8Gff6JwyL9JmR-98" value="Replicate" style="edgeLabel;html=1;align=center;verticalAlign=middle;resizable=0;points=[];" vertex="1" connectable="0" parent="EH2dxOq8Gff6JwyL9JmR-83">
          <mxGeometry x="-0.2796" relative="1" as="geometry">
            <mxPoint x="38" as="offset" />
          </mxGeometry>
        </mxCell>
        <mxCell id="EH2dxOq8Gff6JwyL9JmR-84" style="edgeStyle=orthogonalEdgeStyle;rounded=0;orthogonalLoop=1;jettySize=auto;html=1;entryX=0;entryY=0.75;entryDx=0;entryDy=0;dashed=1;exitX=1;exitY=0.5;exitDx=0;exitDy=0;" edge="1" parent="WIyWlLk6GJQsqaUBKTNV-1" source="EH2dxOq8Gff6JwyL9JmR-8" target="EH2dxOq8Gff6JwyL9JmR-31">
          <mxGeometry relative="1" as="geometry">
            <mxPoint x="40" y="545" as="sourcePoint" />
            <Array as="points">
              <mxPoint x="60" y="565" />
              <mxPoint x="60" y="468" />
            </Array>
          </mxGeometry>
        </mxCell>
        <mxCell id="EH2dxOq8Gff6JwyL9JmR-85" style="edgeStyle=orthogonalEdgeStyle;rounded=0;orthogonalLoop=1;jettySize=auto;html=1;dashed=1;exitX=1;exitY=0.5;exitDx=0;exitDy=0;" edge="1" parent="WIyWlLk6GJQsqaUBKTNV-1" source="EH2dxOq8Gff6JwyL9JmR-8" target="EH2dxOq8Gff6JwyL9JmR-39">
          <mxGeometry relative="1" as="geometry" />
        </mxCell>
        <mxCell id="EH2dxOq8Gff6JwyL9JmR-88" style="edgeStyle=orthogonalEdgeStyle;rounded=0;orthogonalLoop=1;jettySize=auto;html=1;entryX=0.25;entryY=1;entryDx=0;entryDy=0;dashed=1;exitX=1;exitY=0.5;exitDx=0;exitDy=0;" edge="1" parent="WIyWlLk6GJQsqaUBKTNV-1" source="EH2dxOq8Gff6JwyL9JmR-8" target="EH2dxOq8Gff6JwyL9JmR-47">
          <mxGeometry relative="1" as="geometry">
            <mxPoint x="40" y="545" as="sourcePoint" />
            <Array as="points">
              <mxPoint x="60" y="565" />
              <mxPoint x="60" y="740" />
              <mxPoint x="482" y="740" />
            </Array>
          </mxGeometry>
        </mxCell>
        <mxCell id="EH2dxOq8Gff6JwyL9JmR-101" value="Manages" style="edgeLabel;html=1;align=center;verticalAlign=middle;resizable=0;points=[];rotation=-90;" vertex="1" connectable="0" parent="EH2dxOq8Gff6JwyL9JmR-88">
          <mxGeometry x="-0.8205" y="-2" relative="1" as="geometry">
            <mxPoint y="14" as="offset" />
          </mxGeometry>
        </mxCell>
        <mxCell id="EH2dxOq8Gff6JwyL9JmR-99" value="" style="endArrow=none;dashed=1;html=1;dashPattern=1 3;strokeWidth=2;rounded=0;" edge="1" parent="WIyWlLk6GJQsqaUBKTNV-1">
          <mxGeometry width="50" height="50" relative="1" as="geometry">
            <mxPoint x="340" y="660" as="sourcePoint" />
            <mxPoint x="410" y="660" as="targetPoint" />
          </mxGeometry>
        </mxCell>
        <mxCell id="EH2dxOq8Gff6JwyL9JmR-100" value="&lt;b&gt;&lt;font style=&quot;font-size: 16px;&quot;&gt;n brokers&lt;/font&gt;&lt;/b&gt;" style="text;html=1;align=center;verticalAlign=middle;whiteSpace=wrap;rounded=0;" vertex="1" parent="WIyWlLk6GJQsqaUBKTNV-1">
          <mxGeometry x="330" y="630" width="96" height="30" as="geometry" />
        </mxCell>
        <mxCell id="EH2dxOq8Gff6JwyL9JmR-102" value="" style="group;" vertex="1" connectable="0" parent="WIyWlLk6GJQsqaUBKTNV-1">
          <mxGeometry x="630" y="330" width="250" height="170" as="geometry" />
        </mxCell>
        <mxCell id="EH2dxOq8Gff6JwyL9JmR-103" value="" style="rounded=1;whiteSpace=wrap;html=1;fillColor=#fff2cc;strokeColor=#d6b656;" vertex="1" parent="EH2dxOq8Gff6JwyL9JmR-102">
          <mxGeometry width="250" height="170" as="geometry" />
        </mxCell>
        <mxCell id="EH2dxOq8Gff6JwyL9JmR-104" value="&lt;b style=&quot;&quot;&gt;&lt;u&gt;container: spark-processing&lt;/u&gt;&lt;/b&gt;" style="text;html=1;align=center;verticalAlign=middle;whiteSpace=wrap;rounded=0;" vertex="1" parent="EH2dxOq8Gff6JwyL9JmR-102">
          <mxGeometry x="36.25" y="6" width="177.5" height="30" as="geometry" />
        </mxCell>
        <mxCell id="EH2dxOq8Gff6JwyL9JmR-105" value="" style="rounded=1;whiteSpace=wrap;html=1;" vertex="1" parent="EH2dxOq8Gff6JwyL9JmR-102">
          <mxGeometry y="40" width="250" height="130" as="geometry" />
        </mxCell>
        <mxCell id="EH2dxOq8Gff6JwyL9JmR-106" value="&lt;span style=&quot;font-size: 14px;&quot;&gt;&lt;b&gt;Stream Processing&lt;/b&gt;&lt;/span&gt;" style="text;html=1;align=center;verticalAlign=middle;whiteSpace=wrap;rounded=0;" vertex="1" parent="EH2dxOq8Gff6JwyL9JmR-102">
          <mxGeometry x="6.8700000000000045" y="60" width="117.5" height="30" as="geometry" />
        </mxCell>
        <mxCell id="EH2dxOq8Gff6JwyL9JmR-107" value="" style="endArrow=none;html=1;rounded=0;entryX=0.5;entryY=0;entryDx=0;entryDy=0;exitX=0.5;exitY=1;exitDx=0;exitDy=0;dashed=1;dashPattern=1 2;" edge="1" parent="EH2dxOq8Gff6JwyL9JmR-102" source="EH2dxOq8Gff6JwyL9JmR-105" target="EH2dxOq8Gff6JwyL9JmR-105">
          <mxGeometry width="50" height="50" relative="1" as="geometry">
            <mxPoint x="160" y="120" as="sourcePoint" />
            <mxPoint x="210" y="70" as="targetPoint" />
          </mxGeometry>
        </mxCell>
        <mxCell id="EH2dxOq8Gff6JwyL9JmR-108" value="Running in Docker Container with Apache Spark Streaming" style="text;html=1;align=center;verticalAlign=middle;whiteSpace=wrap;rounded=0;" vertex="1" parent="EH2dxOq8Gff6JwyL9JmR-102">
          <mxGeometry x="140" y="52.5" width="100" height="105" as="geometry" />
        </mxCell>
        <mxCell id="EH2dxOq8Gff6JwyL9JmR-111" value="" style="strokeWidth=2;html=1;shape=mxgraph.flowchart.direct_data;whiteSpace=wrap;fillColor=#fff2cc;strokeColor=#d6b656;" vertex="1" parent="EH2dxOq8Gff6JwyL9JmR-102">
          <mxGeometry x="27.619999999999997" y="110" width="76" height="39" as="geometry" />
        </mxCell>
        <mxCell id="EH2dxOq8Gff6JwyL9JmR-113" style="edgeStyle=orthogonalEdgeStyle;rounded=0;orthogonalLoop=1;jettySize=auto;html=1;exitX=1;exitY=0.5;exitDx=0;exitDy=0;entryX=0;entryY=0.5;entryDx=0;entryDy=0;" edge="1" parent="WIyWlLk6GJQsqaUBKTNV-1" source="EH2dxOq8Gff6JwyL9JmR-31" target="EH2dxOq8Gff6JwyL9JmR-105">
          <mxGeometry relative="1" as="geometry" />
        </mxCell>
        <mxCell id="EH2dxOq8Gff6JwyL9JmR-114" value="Topic read by&amp;nbsp;&lt;div&gt;Spark Processing&lt;/div&gt;" style="edgeLabel;html=1;align=center;verticalAlign=middle;resizable=0;points=[];" vertex="1" connectable="0" parent="EH2dxOq8Gff6JwyL9JmR-113">
          <mxGeometry x="-0.4037" y="-1" relative="1" as="geometry">
            <mxPoint x="28" y="-1" as="offset" />
          </mxGeometry>
        </mxCell>
        <mxCell id="EH2dxOq8Gff6JwyL9JmR-115" value="Publish to Topic" style="edgeLabel;html=1;align=center;verticalAlign=middle;resizable=0;points=[];rotation=0;" vertex="1" connectable="0" parent="WIyWlLk6GJQsqaUBKTNV-1">
          <mxGeometry x="460" y="310" as="geometry" />
        </mxCell>
        <mxCell id="EH2dxOq8Gff6JwyL9JmR-129" style="edgeStyle=orthogonalEdgeStyle;rounded=0;orthogonalLoop=1;jettySize=auto;html=1;entryX=0.5;entryY=1;entryDx=0;entryDy=0;exitX=0.5;exitY=1;exitDx=0;exitDy=0;" edge="1" parent="WIyWlLk6GJQsqaUBKTNV-1" source="EH2dxOq8Gff6JwyL9JmR-105" target="EH2dxOq8Gff6JwyL9JmR-16">
          <mxGeometry relative="1" as="geometry" />
        </mxCell>
        <mxCell id="EH2dxOq8Gff6JwyL9JmR-130" value="&lt;ul&gt;&lt;li&gt;Outlier Detection&lt;/li&gt;&lt;li&gt;Append to Cassandra DB&lt;/li&gt;&lt;/ul&gt;" style="edgeLabel;html=1;align=center;verticalAlign=middle;resizable=0;points=[];" vertex="1" connectable="0" parent="EH2dxOq8Gff6JwyL9JmR-129">
          <mxGeometry x="-0.707" relative="1" as="geometry">
            <mxPoint x="13" y="25" as="offset" />
          </mxGeometry>
        </mxCell>
        <mxCell id="EH2dxOq8Gff6JwyL9JmR-132" value="Write to DB IP (external)" style="edgeLabel;html=1;align=center;verticalAlign=middle;resizable=0;points=[];" vertex="1" connectable="0" parent="EH2dxOq8Gff6JwyL9JmR-129">
          <mxGeometry x="0.2174" y="-1" relative="1" as="geometry">
            <mxPoint x="44" as="offset" />
          </mxGeometry>
        </mxCell>
        <mxCell id="EH2dxOq8Gff6JwyL9JmR-131" value="&lt;span style=&quot;font-size: 18px;&quot;&gt;&lt;b&gt;iotnet&lt;/b&gt;&lt;/span&gt;" style="text;html=1;align=center;verticalAlign=middle;whiteSpace=wrap;rounded=0;" vertex="1" parent="WIyWlLk6GJQsqaUBKTNV-1">
          <mxGeometry x="-220" y="100" width="60" height="30" as="geometry" />
        </mxCell>
        <mxCell id="EH2dxOq8Gff6JwyL9JmR-135" value="" style="group;" vertex="1" connectable="0" parent="WIyWlLk6GJQsqaUBKTNV-1">
          <mxGeometry x="-210" y="720" width="250" height="170" as="geometry" />
        </mxCell>
        <mxCell id="EH2dxOq8Gff6JwyL9JmR-136" value="" style="rounded=1;whiteSpace=wrap;html=1;fillColor=#e6d0de;strokeColor=#996185;gradientColor=#d5739d;" vertex="1" parent="EH2dxOq8Gff6JwyL9JmR-135">
          <mxGeometry width="250" height="170" as="geometry" />
        </mxCell>
        <mxCell id="EH2dxOq8Gff6JwyL9JmR-139" value="" style="rounded=1;whiteSpace=wrap;html=1;" vertex="1" parent="EH2dxOq8Gff6JwyL9JmR-135">
          <mxGeometry y="40" width="250" height="130" as="geometry" />
        </mxCell>
        <mxCell id="EH2dxOq8Gff6JwyL9JmR-140" value="&lt;span style=&quot;font-size: 14px;&quot;&gt;&lt;b&gt;JMX Metrics&lt;/b&gt;&lt;/span&gt;" style="text;html=1;align=center;verticalAlign=middle;whiteSpace=wrap;rounded=0;" vertex="1" parent="EH2dxOq8Gff6JwyL9JmR-135">
          <mxGeometry x="6.8700000000000045" y="60" width="117.5" height="30" as="geometry" />
        </mxCell>
        <mxCell id="EH2dxOq8Gff6JwyL9JmR-141" value="" style="endArrow=none;html=1;rounded=0;entryX=0.5;entryY=0;entryDx=0;entryDy=0;exitX=0.5;exitY=1;exitDx=0;exitDy=0;dashed=1;dashPattern=1 2;" edge="1" parent="EH2dxOq8Gff6JwyL9JmR-135" source="EH2dxOq8Gff6JwyL9JmR-139" target="EH2dxOq8Gff6JwyL9JmR-139">
          <mxGeometry width="50" height="50" relative="1" as="geometry">
            <mxPoint x="160" y="120" as="sourcePoint" />
            <mxPoint x="210" y="70" as="targetPoint" />
          </mxGeometry>
        </mxCell>
        <mxCell id="EH2dxOq8Gff6JwyL9JmR-142" value="Running in Docker Container with Prometheus" style="text;html=1;align=center;verticalAlign=middle;whiteSpace=wrap;rounded=0;" vertex="1" parent="EH2dxOq8Gff6JwyL9JmR-135">
          <mxGeometry x="140" y="52.5" width="100" height="105" as="geometry" />
        </mxCell>
        <mxCell id="EH2dxOq8Gff6JwyL9JmR-144" value="" style="aspect=fixed;sketch=0;html=1;dashed=0;whitespace=wrap;fillColor=#2875E2;strokeColor=#ffffff;points=[[0.005,0.63,0],[0.1,0.2,0],[0.9,0.2,0],[0.5,0,0],[0.995,0.63,0],[0.72,0.99,0],[0.5,1,0],[0.28,0.99,0]];shape=mxgraph.kubernetes.icon2;prIcon=quota" vertex="1" parent="EH2dxOq8Gff6JwyL9JmR-135">
          <mxGeometry x="36" y="90" width="62.5" height="60" as="geometry" />
        </mxCell>
        <mxCell id="EH2dxOq8Gff6JwyL9JmR-138" value="&lt;b style=&quot;&quot;&gt;&lt;u&gt;container: grafana&lt;/u&gt;&lt;/b&gt;" style="text;html=1;align=center;verticalAlign=middle;whiteSpace=wrap;rounded=0;" vertex="1" parent="EH2dxOq8Gff6JwyL9JmR-135">
          <mxGeometry x="50" y="6" width="150" height="30" as="geometry" />
        </mxCell>
        <mxCell id="EH2dxOq8Gff6JwyL9JmR-145" style="edgeStyle=orthogonalEdgeStyle;rounded=0;orthogonalLoop=1;jettySize=auto;html=1;exitX=0.75;exitY=1;exitDx=0;exitDy=0;entryX=1;entryY=0.5;entryDx=0;entryDy=0;dashed=1;dashPattern=1 1;fillColor=#dae8fc;gradientColor=#7ea6e0;strokeColor=#6c8ebf;" edge="1" parent="WIyWlLk6GJQsqaUBKTNV-1" source="EH2dxOq8Gff6JwyL9JmR-39" target="EH2dxOq8Gff6JwyL9JmR-139">
          <mxGeometry relative="1" as="geometry">
            <Array as="points">
              <mxPoint x="270" y="720" />
              <mxPoint x="270" y="825" />
            </Array>
          </mxGeometry>
        </mxCell>
        <mxCell id="EH2dxOq8Gff6JwyL9JmR-148" value="JMX Metrics" style="edgeLabel;html=1;align=center;verticalAlign=middle;resizable=0;points=[];" vertex="1" connectable="0" parent="EH2dxOq8Gff6JwyL9JmR-145">
          <mxGeometry x="-0.6415" y="-2" relative="1" as="geometry">
            <mxPoint as="offset" />
          </mxGeometry>
        </mxCell>
        <mxCell id="EH2dxOq8Gff6JwyL9JmR-146" style="edgeStyle=orthogonalEdgeStyle;rounded=0;orthogonalLoop=1;jettySize=auto;html=1;exitX=0.75;exitY=1;exitDx=0;exitDy=0;entryX=1;entryY=0.5;entryDx=0;entryDy=0;dashed=1;dashPattern=1 1;fillColor=#dae8fc;gradientColor=#7ea6e0;strokeColor=#6c8ebf;" edge="1" parent="WIyWlLk6GJQsqaUBKTNV-1" source="EH2dxOq8Gff6JwyL9JmR-47" target="EH2dxOq8Gff6JwyL9JmR-139">
          <mxGeometry relative="1" as="geometry">
            <Array as="points">
              <mxPoint x="608" y="825" />
            </Array>
          </mxGeometry>
        </mxCell>
        <mxCell id="EH2dxOq8Gff6JwyL9JmR-149" value="JMX Metrics" style="edgeLabel;html=1;align=center;verticalAlign=middle;resizable=0;points=[];" vertex="1" connectable="0" parent="EH2dxOq8Gff6JwyL9JmR-146">
          <mxGeometry x="-0.8109" y="-3" relative="1" as="geometry">
            <mxPoint as="offset" />
          </mxGeometry>
        </mxCell>
        <mxCell id="EH2dxOq8Gff6JwyL9JmR-147" style="edgeStyle=orthogonalEdgeStyle;rounded=0;orthogonalLoop=1;jettySize=auto;html=1;entryX=1;entryY=0.5;entryDx=0;entryDy=0;dashed=1;dashPattern=1 1;fillColor=#dae8fc;gradientColor=#7ea6e0;strokeColor=#6c8ebf;" edge="1" parent="WIyWlLk6GJQsqaUBKTNV-1" source="EH2dxOq8Gff6JwyL9JmR-31" target="EH2dxOq8Gff6JwyL9JmR-139">
          <mxGeometry relative="1" as="geometry">
            <Array as="points">
              <mxPoint x="430" y="510" />
              <mxPoint x="690" y="510" />
              <mxPoint x="690" y="825" />
            </Array>
          </mxGeometry>
        </mxCell>
        <mxCell id="EH2dxOq8Gff6JwyL9JmR-150" value="JMX Metrics" style="edgeLabel;html=1;align=center;verticalAlign=middle;resizable=0;points=[];" vertex="1" connectable="0" parent="EH2dxOq8Gff6JwyL9JmR-147">
          <mxGeometry x="-0.1106" y="1" relative="1" as="geometry">
            <mxPoint y="-5" as="offset" />
          </mxGeometry>
        </mxCell>
        <mxCell id="EH2dxOq8Gff6JwyL9JmR-151" value="Collected by Prometheus" style="edgeLabel;html=1;align=center;verticalAlign=middle;resizable=0;points=[];" vertex="1" connectable="0" parent="EH2dxOq8Gff6JwyL9JmR-147">
          <mxGeometry x="0.9514" y="1" relative="1" as="geometry">
            <mxPoint x="50" as="offset" />
          </mxGeometry>
        </mxCell>
        <mxCell id="EH2dxOq8Gff6JwyL9JmR-153" style="edgeStyle=orthogonalEdgeStyle;rounded=0;orthogonalLoop=1;jettySize=auto;html=1;exitX=0.75;exitY=1;exitDx=0;exitDy=0;entryX=0.5;entryY=0;entryDx=0;entryDy=0;fillColor=#dae8fc;gradientColor=#7ea6e0;strokeColor=#6c8ebf;dashed=1;dashPattern=1 1;" edge="1" parent="WIyWlLk6GJQsqaUBKTNV-1" source="EH2dxOq8Gff6JwyL9JmR-8" target="EH2dxOq8Gff6JwyL9JmR-136">
          <mxGeometry relative="1" as="geometry">
            <Array as="points">
              <mxPoint x="-22" y="680" />
              <mxPoint x="-85" y="680" />
            </Array>
          </mxGeometry>
        </mxCell>
        <mxCell id="EH2dxOq8Gff6JwyL9JmR-154" value="JMX Metrics" style="edgeLabel;html=1;align=center;verticalAlign=middle;resizable=0;points=[];" vertex="1" connectable="0" parent="EH2dxOq8Gff6JwyL9JmR-153">
          <mxGeometry x="-0.6104" y="3" relative="1" as="geometry">
            <mxPoint as="offset" />
          </mxGeometry>
        </mxCell>
        <mxCell id="EH2dxOq8Gff6JwyL9JmR-155" value="Grafana Dashboard" style="swimlane;whiteSpace=wrap;html=1;fillColor=#dae8fc;gradientColor=#7ea6e0;strokeColor=#6c8ebf;" vertex="1" parent="WIyWlLk6GJQsqaUBKTNV-1">
          <mxGeometry x="1000" y="660" width="190" height="130" as="geometry" />
        </mxCell>
        <mxCell id="EH2dxOq8Gff6JwyL9JmR-158" value="&lt;ul&gt;&lt;li&gt;Zookeeper Health&lt;/li&gt;&lt;li&gt;Brokers Health&lt;/li&gt;&lt;li&gt;Topic Metrics&amp;nbsp;&lt;/li&gt;&lt;/ul&gt;" style="text;html=1;align=center;verticalAlign=middle;resizable=0;points=[];autosize=1;strokeColor=none;fillColor=none;" vertex="1" parent="EH2dxOq8Gff6JwyL9JmR-155">
          <mxGeometry y="37.5" width="160" height="80" as="geometry" />
        </mxCell>
        <mxCell id="EH2dxOq8Gff6JwyL9JmR-156" style="edgeStyle=orthogonalEdgeStyle;rounded=0;orthogonalLoop=1;jettySize=auto;html=1;exitX=1;exitY=0.75;exitDx=0;exitDy=0;entryX=0;entryY=0.5;entryDx=0;entryDy=0;" edge="1" parent="WIyWlLk6GJQsqaUBKTNV-1" source="EH2dxOq8Gff6JwyL9JmR-139" target="EH2dxOq8Gff6JwyL9JmR-155">
          <mxGeometry relative="1" as="geometry">
            <Array as="points">
              <mxPoint x="840" y="857" />
              <mxPoint x="840" y="725" />
            </Array>
          </mxGeometry>
        </mxCell>
        <mxCell id="EH2dxOq8Gff6JwyL9JmR-157" value="Make Grafana Accessible on External Public Port" style="edgeLabel;html=1;align=center;verticalAlign=middle;resizable=0;points=[];" vertex="1" connectable="0" parent="EH2dxOq8Gff6JwyL9JmR-156">
          <mxGeometry x="0.186" y="2" relative="1" as="geometry">
            <mxPoint x="-151" y="2" as="offset" />
          </mxGeometry>
        </mxCell>
        <mxCell id="EH2dxOq8Gff6JwyL9JmR-163" value="&lt;b&gt;External Networks&lt;/b&gt;" style="text;html=1;align=center;verticalAlign=middle;whiteSpace=wrap;rounded=0;" vertex="1" parent="WIyWlLk6GJQsqaUBKTNV-1">
          <mxGeometry x="953" y="100" width="60" height="30" as="geometry" />
        </mxCell>
        <mxCell id="EH2dxOq8Gff6JwyL9JmR-164" value="" style="group;" vertex="1" connectable="0" parent="WIyWlLk6GJQsqaUBKTNV-1">
          <mxGeometry x="-210" y="280" width="220" height="170" as="geometry" />
        </mxCell>
        <mxCell id="EH2dxOq8Gff6JwyL9JmR-165" value="" style="rounded=1;whiteSpace=wrap;html=1;fillColor=#a20025;strokeColor=#6F0000;fontColor=#ffffff;" vertex="1" parent="EH2dxOq8Gff6JwyL9JmR-164">
          <mxGeometry width="220" height="150" as="geometry" />
        </mxCell>
        <mxCell id="EH2dxOq8Gff6JwyL9JmR-166" value="" style="rounded=1;whiteSpace=wrap;html=1;" vertex="1" parent="EH2dxOq8Gff6JwyL9JmR-164">
          <mxGeometry y="35.294117647058826" width="220" height="114.70588235294117" as="geometry" />
        </mxCell>
        <mxCell id="EH2dxOq8Gff6JwyL9JmR-167" value="&lt;span style=&quot;font-size: 14px;&quot;&gt;&lt;b&gt;Topic Creation&lt;/b&gt;&lt;/span&gt;" style="text;html=1;align=center;verticalAlign=middle;whiteSpace=wrap;rounded=0;" vertex="1" parent="EH2dxOq8Gff6JwyL9JmR-164">
          <mxGeometry x="6.045600000000004" y="52.94117647058823" width="103.4" height="26.470588235294116" as="geometry" />
        </mxCell>
        <mxCell id="EH2dxOq8Gff6JwyL9JmR-168" value="" style="endArrow=none;html=1;rounded=0;entryX=0.5;entryY=0;entryDx=0;entryDy=0;exitX=0.5;exitY=1;exitDx=0;exitDy=0;dashed=1;dashPattern=1 2;" edge="1" parent="EH2dxOq8Gff6JwyL9JmR-164" source="EH2dxOq8Gff6JwyL9JmR-166" target="EH2dxOq8Gff6JwyL9JmR-166">
          <mxGeometry width="50" height="50" relative="1" as="geometry">
            <mxPoint x="140.8" y="105.88235294117646" as="sourcePoint" />
            <mxPoint x="184.8" y="61.76470588235294" as="targetPoint" />
          </mxGeometry>
        </mxCell>
        <mxCell id="EH2dxOq8Gff6JwyL9JmR-169" value="Running in Docker Container with Kafka Client (temporary)" style="text;html=1;align=center;verticalAlign=middle;whiteSpace=wrap;rounded=0;" vertex="1" parent="EH2dxOq8Gff6JwyL9JmR-164">
          <mxGeometry x="123.2" y="46.3235294117647" width="88" height="92.6470588235294" as="geometry" />
        </mxCell>
        <mxCell id="EH2dxOq8Gff6JwyL9JmR-171" value="&lt;b style=&quot;&quot;&gt;&lt;u&gt;container: client&lt;/u&gt;&lt;/b&gt;" style="text;html=1;align=center;verticalAlign=middle;whiteSpace=wrap;rounded=0;fontColor=#FFFFFF;" vertex="1" parent="EH2dxOq8Gff6JwyL9JmR-164">
          <mxGeometry x="44" y="5.294117647058823" width="132" height="26.470588235294116" as="geometry" />
        </mxCell>
        <mxCell id="EH2dxOq8Gff6JwyL9JmR-173" value="" style="shape=image;html=1;verticalLabelPosition=bottom;verticalAlign=top;imageAspect=1;aspect=fixed;image=img/clipart/Gear_128x128.png" vertex="1" parent="EH2dxOq8Gff6JwyL9JmR-164">
          <mxGeometry x="44" y="83.41" width="34.95" height="41" as="geometry" />
        </mxCell>
        <mxCell id="EH2dxOq8Gff6JwyL9JmR-174" style="edgeStyle=orthogonalEdgeStyle;rounded=0;orthogonalLoop=1;jettySize=auto;html=1;entryX=0;entryY=0.5;entryDx=0;entryDy=0;" edge="1" parent="WIyWlLk6GJQsqaUBKTNV-1" target="EH2dxOq8Gff6JwyL9JmR-31">
          <mxGeometry relative="1" as="geometry">
            <mxPoint x="10" y="373" as="sourcePoint" />
            <Array as="points">
              <mxPoint x="10" y="374" />
              <mxPoint x="50" y="374" />
              <mxPoint x="50" y="435" />
            </Array>
          </mxGeometry>
        </mxCell>
        <mxCell id="EH2dxOq8Gff6JwyL9JmR-175" value="Creates Topic and Terminates" style="edgeLabel;html=1;align=center;verticalAlign=middle;resizable=0;points=[];" vertex="1" connectable="0" parent="EH2dxOq8Gff6JwyL9JmR-174">
          <mxGeometry x="-0.0053" y="-1" relative="1" as="geometry">
            <mxPoint x="52" y="-1" as="offset" />
          </mxGeometry>
        </mxCell>
      </root>
    </mxGraphModel>
  </diagram>
</mxfile>
